# xmcd
#
# Track frame offsets:
#	180
#	10251
#	18515
#	28778
#	38988
#	50519
#	59046
#	71251
#	81122
#	91311
#	103414
#	114267
#	122692
#	134404
#	146241
#	155190
#	164574
#	174530
#
# Disc length: 2473 seconds
#
# Revision: 2
# Processed by: cddbd v1.5.2PL0 Copyright (c) Steve Scherf et al.
# Submitted via: audiograbber 1.83.01
#
DISCID=0509a712
DTITLE=Johnny Cash and The Tennessee Two - Sings The Greatest Hits - Sings The Bl
DTITLE=ue Train
DYEAR=1999
DGENRE=Oldies
TTITLE0=Ballad Of A Teen Age Queen
TTITLE1=Sugartime
TTITLE2=Goodby Little Darling
TTITLE3=Hey Porter
TTITLE4=Big River
TTITLE5=Guess Things Happen That Way
TTITLE6=Goodnight Irene
TTITLE7=Born To Lose
TTITLE8=Get Rhythm
TTITLE9=Home Of The Blues
TTITLE10=Train Of love
TTITLE11=The Wreck Of The Old 97
TTITLE12=Wide Open Road
TTITLE13=Port Of Lonely Hearts
TTITLE14=Two Timin' Woman
TTITLE15=Blue Train
TTITLE16=Rock Island Line
TTITLE17=Home Of The Blues
EXTD=
EXTT0=
EXTT1=
EXTT2=
EXTT3=
EXTT4=
EXTT5=
EXTT6=
EXTT7=
EXTT8=
EXTT9=
EXTT10=
EXTT11=
EXTT12=
EXTT13=
EXTT14=
EXTT15=
EXTT16=
EXTT17=
PLAYORDER=
